# xmcd
#
# Track frame offsets: 
#        150
#        16959
#        33552
#        49327
#        66332
#        81910
#        98969
#        114692
#        130972
#        146475
#        162635
#
# Disc length: 2408 seconds
#
# Revision: 0
# Processed by: cddbd v1.5.2PL0 Copyright (c) Steve Scherf et al.
# Submitted via: ExactAudioCopy v1.0b3
#
DISCID=a109660b
DTITLE=Danielle Bradbery - Danielle Bradbery
DYEAR=2013
DGENRE=Country
TTITLE0=Young In America
TTITLE1=Wild Boy
TTITLE2=The Heart Of Dixie
TTITLE3=I Will Never Forget You
TTITLE4=Endless Summer
TTITLE5=Talk About Love
TTITLE6=Never Like This
TTITLE7=Daughter Of A Workin' Man
TTITLE8=Dance Hall
TTITLE9=Yellin' From The Rooftop
TTITLE10=My Day
EXTD=
EXTT0=
EXTT1=
EXTT2=
EXTT3=
EXTT4=
EXTT5=
EXTT6=
EXTT7=
EXTT8=
EXTT9=
EXTT10=
PLAYORDER=
